<svg width="139" height="40" viewBox="0 0 139 40" fill="none" xmlns="http://www.w3.org/2000/svg">
<g clip-path="url(#clip0_2186_1459)">
<g clip-path="url(#clip1_2186_1459)">
<path fill-rule="evenodd" clip-rule="evenodd" d="M16.48 39H19.475V23H16.48V39ZM27.4587 38.76H30.1413V28.665L41.4325 39V23.24H38.7575V33.1625L27.4587 23V38.76ZM47.5563 34.885C49.0163 36.0225 50.7687 36.68 52.6475 36.68C54.4775 36.68 55.7612 36.05 55.7612 34.6588C55.7612 33.4463 54.9425 32.9713 53.5087 32.44L51.1875 31.6338C49.0475 30.8738 47.42 29.7638 47.42 27.2125C47.42 24.4837 49.8837 23 52.83 23C54.635 23 56.28 23.4537 57.565 24.2575V26.9638C56.2288 25.9762 54.7663 25.2963 52.8875 25.2963C51.27 25.2963 50.0612 25.9 50.0612 27.1588C50.0612 28.2963 50.82 28.7512 52.1562 29.2087L54.7425 30.1162C57.2488 30.9975 58.3988 32.3638 58.3988 34.6113C58.3988 37.4388 55.9112 39 52.6475 39C50.5025 39 48.6788 38.4 47.5563 37.6425V34.885ZM65.3863 39H68.38V23H65.3863V39ZM82.425 36.5788C85.8 36.5788 87.6038 34.4137 87.6038 30.9963C87.6038 27.5538 85.7988 25.3963 82.425 25.3963H79.0875V36.5788H82.425ZM76.3625 23H82.525C87.2688 23 90.3363 26.125 90.3363 30.9963C90.3363 35.8713 87.2688 39 82.525 39H76.3625V23ZM105.309 23V25.3963H98.0625V29.2463H104.561V31.615H98.0612V36.5788H105.309V39H95.3275V23H105.309ZM115.936 30.245H118.908C120.666 30.245 121.658 29.28 121.658 27.7963C121.658 26.3125 120.666 25.3462 118.908 25.3462H115.936V30.245ZM115.936 32.5075V39H113.292V23H118.958C122.188 23 124.277 24.6638 124.277 27.7963C124.277 30.475 123.118 32.0137 120.646 32.4087L126.268 39H123.26L117.818 32.5088H115.938L115.936 32.5075ZM15.4338 7.2375C16.605 6.80875 17.5175 5.5225 17.5175 3.75375C17.5175 0.80625 15.4338 -0.72125 12.1 -0.72125H6.5V15.7325H12.62C15.9537 15.7325 18.0375 14.0975 18.0375 11.0162C18.0375 9.27375 16.9437 7.74625 15.4338 7.2375ZM9.13 6.1925V1.69125H12.075C13.925 1.69125 14.9137 2.36125 14.9137 3.915C14.9137 5.46875 13.9237 6.1925 12.075 6.1925H9.13ZM9.13 8.4975H12.5675C14.3925 8.4975 15.3813 9.4075 15.3813 10.9088C15.3813 12.3825 14.3913 13.3212 12.5687 13.3212H9.13125V8.49625L9.13 8.4975ZM30.2562 16C34.085 16 36.6637 13.695 36.6637 9.19375V-0.72125H33.955V8.87125C33.955 12.0337 32.6525 13.5088 30.2562 13.5088C27.86 13.5088 26.5588 12.0337 26.5588 8.87125V-0.72125H23.85V9.16625C23.85 13.695 26.4537 16 30.2562 16ZM43.0412 14.5525C44.1613 15.3575 45.985 16 48.12 16C51.3763 16 53.85 14.3375 53.85 11.3375C53.85 8.9525 52.705 7.505 50.2038 6.5675L47.6263 5.6025C46.2975 5.12125 45.5425 4.63875 45.5425 3.4325C45.5425 2.0925 46.74 1.45 48.355 1.45C50.23 1.45 51.6888 2.1725 53.0175 3.21875V0.35C51.7412 -0.50625 50.1 -0.98875 48.3025 -0.98875C45.36 -0.98875 42.9113 0.5925 42.9113 3.48625C42.9113 6.1925 44.5263 7.37125 46.6613 8.175L48.98 9.0325C50.4125 9.595 51.22 10.105 51.22 11.3913C51.22 12.865 49.9438 13.535 48.12 13.535C46.245 13.535 44.5 12.8375 43.0412 11.6325V14.5525ZM63.5288 -0.72125H60.8213V15.7313H63.5288V-0.72125ZM71.2562 15.7113H73.8662V5.0075L84.8512 15.9662V-0.74625H82.2487V9.775L71.2562 -1V15.7113ZM101.777 -0.7175V1.74625H94.745V5.70625H101.051V8.1425H94.745V13.2463H101.777V15.7362H92.09V-0.7175H101.777ZM108.084 14.5412C109.204 15.3462 111.026 15.9888 113.163 15.9888C116.418 15.9888 118.893 14.3275 118.893 11.3263C118.893 8.94125 117.746 7.495 115.246 6.55625L112.667 5.5925C111.339 5.11 110.584 4.6275 110.584 3.42125C110.584 2.08125 111.781 1.43875 113.396 1.43875C115.271 1.43875 116.73 2.1625 118.059 3.2075V0.34C116.783 -0.5175 115.141 -1 113.344 -1C110.401 -1 107.952 0.58125 107.952 3.475C107.952 6.18125 109.568 7.36 111.702 8.16375L114.021 9.02125C115.454 9.58375 116.261 10.0938 116.261 11.38C116.261 12.8538 114.986 13.5238 113.161 13.5238C111.286 13.5238 109.541 12.8275 108.084 11.6213V14.5412ZM124.441 14.5412C125.561 15.3462 127.385 15.9888 129.52 15.9888C132.776 15.9888 135.25 14.3275 135.25 11.3263C135.25 8.94125 134.104 7.495 131.604 6.55625L129.025 5.5925C127.697 5.11 126.941 4.6275 126.941 3.42125C126.941 2.08125 128.14 1.43875 129.754 1.43875C131.629 1.43875 133.089 2.1625 134.416 3.2075V0.34C133.141 -0.5175 131.5 -1 129.702 -1C126.759 -1 124.311 0.58125 124.311 3.475C124.311 6.18125 125.926 7.36 128.061 8.16375L130.38 9.02125C131.812 9.58375 132.62 10.0938 132.62 11.38C132.62 12.8538 131.344 13.5238 129.52 13.5238C127.645 13.5238 125.9 12.8275 124.441 11.6213V14.5412Z" fill="white"/>
</g>
</g>
<defs>
<clipPath id="clip0_2186_1459">
<rect width="138" height="40" fill="white" transform="translate(0.5)"/>
</clipPath>
<clipPath id="clip1_2186_1459">
<rect width="128.75" height="40" fill="white" transform="translate(6.5 -1)"/>
</clipPath>
</defs>
</svg>
