<svg width="71" height="66" viewBox="0 0 71 66" fill="none" xmlns="http://www.w3.org/2000/svg">
<path fill-rule="evenodd" clip-rule="evenodd" d="M10.5262 36.987C6.92191 36.987 4 34.0715 4 30.4754C4 26.8792 6.92191 23.9634 10.5262 23.9634C11.8425 23.9634 13.068 24.3524 14.0933 25.0214L31.8723 36.987H10.5262ZM12.3299 22.3337C9.3106 20.3759 8.45229 16.3451 10.4132 13.3303C12.374 10.3158 16.4114 9.45876 19.4304 11.4165C20.4927 12.1028 21.3309 13.0845 21.8416 14.2407L30.9275 34.9299L12.3299 22.3337ZM59.4583 36.9933C63.0711 36.9933 66 34.0751 66 30.475C66 26.8749 63.0711 23.9568 59.4583 23.9568C58.1393 23.9568 56.9112 24.3461 55.8835 25.0158L38.0634 36.9936L59.4583 36.9933ZM57.6548 22.3334C60.6808 20.3739 61.5411 16.3388 59.5759 13.3214C57.6107 10.3039 53.5647 9.44618 50.5388 11.406C49.4742 12.0925 48.634 13.0752 48.1219 14.2331L39.0155 34.9418L57.6548 22.3334ZM37.5855 10.0818C37.1196 10.4423 35.8424 10.6383 36.1194 12.9099L38.878 32.1822L48.0782 11.1742C49.5489 7.88432 48.0633 4.02998 44.7609 2.56545C41.4579 1.10059 37.5879 2.58002 36.1175 5.86992C35.6407 6.93233 35.4593 8.10347 35.5925 9.26013L37.3264 9.25715C38.309 9.30582 38.8263 9.56668 37.5855 10.0818ZM21.9016 11.1795C20.4342 7.89259 21.9165 4.04157 25.2123 2.57836C28.5083 1.11515 32.3701 2.59326 33.8375 5.88018C34.3551 7.03443 34.5231 8.31485 34.3206 9.56337L31.0826 32.169L21.9016 11.1795ZM61.8489 62.135C60.7921 62.5647 59.221 63 57.7648 63C51.1091 63 45.713 57.8956 45.713 51.5995C45.713 45.3031 51.1091 40.1991 57.7648 40.1991C59.1971 40.1991 60.7679 40.5477 61.8489 41.0429V45.4014C60.6364 44.6044 59.2163 44.1807 57.7648 44.1828C53.6562 44.1828 50.3247 47.5032 50.3247 51.5992C50.3247 55.6949 53.6562 59.0152 57.7648 59.0152C59.2657 59.0152 60.6801 58.5723 61.8489 57.8099V62.135ZM21.8052 40.9439H26.2296V62.7269L12.609 50.3009V62.2502H8.18452V40.4729L21.8052 52.8989V40.9439ZM41.0559 50.8643C42.4067 49.8645 43.5828 48.9105 43.5719 46.3942C43.5569 43.0825 40.8746 40.9234 37.5478 40.9234H28.7681V62.271H38.6158C42.1038 62.271 44.7576 59.628 44.7576 56.1547C44.7576 52.682 41.8837 51.1662 41.0559 50.8643ZM33.2164 44.1507L36.5052 44.1511C38.0449 44.1511 39.2929 45.3938 39.2929 46.9269C39.2929 48.4596 38.0449 49.7027 36.5052 49.7027H33.2164V44.1507ZM37.2203 59.0665H33.2171V52.8919L37.2207 52.8737C38.9373 52.8737 40.3288 54.2601 40.3288 55.9703C40.3288 57.6805 38.937 59.0665 37.2203 59.0665Z" fill="white"/>
</svg>
