<svg width="341" height="100" viewBox="0 0 341 100" fill="none" xmlns="http://www.w3.org/2000/svg">
<g clip-path="url(#clip0_10276_84548)">
<mask id="mask0_10276_84548" style="mask-type:luminance" maskUnits="userSpaceOnUse" x="0" y="0" width="341" height="100">
<path d="M341 0H0V100H341V0Z" fill="white"/>
</mask>
<g mask="url(#mask0_10276_84548)">
<path d="M17.3384 41.3729C17.3384 47.2835 22.8923 48.7485 34.7322 52.6889C51.5707 58.2206 58.8412 64.2827 58.8412 77.5942C58.8412 90.9056 46.9256 99.9736 30.3648 99.9736C21.3019 99.9736 13.7789 97.4477 8.78037 97.4477C6.23797 97.4868 3.80039 98.4678 1.93896 100.201L0.5 76.3818H0.777696C8.52792 90.6025 18.9541 97.8266 30.3901 97.8266C36.5751 97.8266 41.3212 95.0733 41.3212 89.2638C41.3212 82.8228 35.843 81.383 26.3761 78.2257C9.94164 72.9718 0.60098 66.2277 0.60098 52.9668C0.60098 40.4636 13.6526 31.9261 27.4617 31.9261C35.742 31.9261 41.0182 34.9572 45.7391 34.9572C48.569 34.8879 51.2707 33.7616 53.3126 31.7998V52.992H53.0601C47.0013 41.5497 36.4994 34.1741 27.4112 34.1741C22.1097 34.1489 17.3384 36.7758 17.3384 41.3729Z" fill="white"/>
<path d="M140.837 93.4848C136.205 97.5977 130.19 99.8081 123.999 99.6732C112.436 99.6732 106.908 95.0761 105.595 87.8268C105.453 86.9153 105.368 85.9957 105.342 85.0736C102.969 93.8889 95.472 99.2943 84.3137 99.2943C74.0643 99.2943 64.7236 94.0405 64.7236 82.7245C64.7236 64.7401 83.6069 65.0432 92.4931 62.5174C108.422 58.2991 106.63 46.1748 106.63 46.1748C106.63 40.6431 102.894 33.9495 96.2042 33.9495C90.8017 33.9495 87.6461 38.1678 87.6461 43.6742C87.6461 54.1567 96.2042 52.0854 97.4412 51.7823C95.7039 54.6069 93.2928 56.9556 90.4243 58.6176C87.5559 60.2797 84.3198 61.2031 81.0066 61.3049C73.7866 61.3049 66.9704 56.7836 66.9704 50.4436C66.9704 37.8142 79.7444 31.5752 96.8353 31.5752C119.555 31.5752 130.89 38.1425 130.89 54.7376C130.89 61.9617 130.638 69.8929 130.638 79.5924C130.638 88.534 131.294 93.409 138.01 93.409C138.934 93.4485 139.859 93.3636 140.761 93.1564V93.409L140.837 93.4848ZM100.192 63.755C92.8213 65.3463 89.9434 70.4739 89.9434 78.7589C89.9434 85.0736 92.0387 89.5444 96.7848 89.5444C102.439 89.5444 104.812 83.6338 104.939 77.1675V62.5679L100.192 63.755Z" fill="white"/>
<path d="M172.141 83.9877C172.141 92.6768 172.393 94.0913 177.922 98.057V98.3095H140.054V98.057C145.583 94.1166 145.835 92.6515 145.835 83.9877V14.3995C145.835 5.3315 144.27 3.20978 138.085 0.0524091V-0.200195H172.141V84.013V83.9877Z" fill="white"/>
<path d="M181.002 65.574C181.002 44.7859 197.966 31.626 218.087 31.626C238.207 31.626 255.172 44.7859 255.172 65.574C255.172 86.3621 238.081 99.6483 218.087 99.6483C198.093 99.6483 181.002 86.3621 181.002 65.574ZM227.427 65.574C227.427 44.1292 225.332 33.8741 218.087 33.8741C210.841 33.8741 208.746 44.1292 208.746 65.574C208.746 87.0188 210.841 97.5265 218.087 97.5265C225.332 97.5265 227.402 87.1451 227.402 65.574H227.427Z" fill="white"/>
<path d="M291.095 32.9395V49.7872C294.251 38.067 302.658 31.626 313.816 31.626C328.534 31.626 334.719 42.159 334.719 54.3591V83.9625C334.719 92.6516 334.971 94.066 340.5 98.0317V98.2843H302.632V98.0317C308.161 94.0913 308.413 92.6263 308.413 83.9625V53.2224C308.413 47.9685 305.889 43.8766 300.663 43.8766C295.008 43.8766 291.07 48.3474 291.07 59.5371V84.013C291.07 92.7021 291.323 94.1166 296.851 98.0822V98.3348H258.984V98.0822C264.512 94.1418 264.765 92.6768 264.765 84.013V47.5644C264.765 38.3449 264.108 37.0314 258.05 33.2173V32.9648H291.095V32.9395Z" fill="white"/>
</g>
</g>
<defs>
<clipPath id="clip0_10276_84548">
<rect width="341" height="100" fill="white"/>
</clipPath>
</defs>
</svg>
